<?xml version="1.0" standalone="no"?>
<!DOCTYPE svg PUBLIC "-//W3C//DTD SVG 20010904//EN"
 "http://www.w3.org/TR/2001/REC-SVG-20010904/DTD/svg10.dtd">
<svg version="1.0" xmlns="http://www.w3.org/2000/svg"
 width="200.000000pt" height="200.000000pt" viewBox="0 0 200.000000 200.000000"
 preserveAspectRatio="xMidYMid meet">
<metadata>
Created by potrace 1.14, written by Peter Selinger 2001-2017
</metadata>
<g transform="translate(0.000000,200.000000) scale(0.100000,-0.100000)"
fill="#000000" stroke="none">
<path d="M339 1627 c-58 -30 -103 -111 -96 -173 4 -40 3 -42 -35 -59 -78 -34
-121 -130 -98 -216 14 -51 84 -124 165 -170 43 -25 57 -28 101 -23 39 5 53 2
64 -11 11 -14 11 -18 -3 -33 -15 -14 -21 -15 -50 -3 -17 8 -58 16 -90 19 -48
3 -64 0 -101 -22 -50 -29 -71 -58 -88 -120 -17 -63 1 -116 61 -180 57 -60 71
-85 71 -123 0 -46 41 -105 103 -148 52 -35 65 -40 116 -40 88 0 128 31 183
142 33 67 48 89 66 91 20 3 22 0 22 -47 0 -69 13 -99 47 -107 15 -3 46 -15 69
-25 30 -14 63 -19 132 -19 136 0 178 23 208 114 26 78 41 96 80 96 33 0 34 -1
34 -40 0 -130 166 -245 287 -199 46 17 84 60 118 134 18 39 52 95 74 125 71
93 76 163 19 252 -59 94 -130 130 -216 110 -53 -12 -61 -9 -45 16 9 14 23 16
77 14 77 -4 108 11 174 82 69 75 67 158 -5 259 -19 27 -49 78 -67 115 -50 103
-83 150 -124 176 -107 71 -242 22 -278 -100 -9 -31 -13 -67 -9 -83 10 -47 -21
-49 -119 -7 -139 60 -307 64 -438 11 -33 -14 -65 -22 -69 -19 -5 3 -19 24 -30
47 -87 169 -192 225 -310 164z m152 -96 c36 -37 38 -75 4 -121 -14 -19 -25
-42 -25 -52 0 -17 4 -22 48 -56 l24 -18 -22 -37 c-12 -21 -25 -36 -29 -35 -48
26 -63 30 -85 24 -14 -3 -26 -13 -26 -22 0 -9 -13 -29 -29 -45 -56 -56 -145
-27 -157 52 -5 28 -1 41 21 67 23 27 34 32 70 32 24 0 47 -4 50 -10 3 -5 20
-10 36 -10 22 0 32 7 41 25 10 23 7 28 -37 69 -45 42 -47 47 -42 83 13 81 101
111 158 54z m1067 -6 c14 -17 22 -39 22 -62 0 -30 -8 -43 -47 -79 -46 -42 -46
-43 -29 -68 19 -30 33 -32 80 -10 79 38 159 -37 126 -117 -35 -83 -150 -74
-180 16 -14 43 -39 51 -87 26 l-39 -19 -23 40 c-12 22 -21 41 -19 43 2 1 17
10 35 19 43 22 50 48 22 88 -34 48 -31 94 10 130 28 25 39 29 70 24 21 -3 45
-16 59 -31z m-506 -156 c112 -24 218 -101 266 -194 22 -42 27 -63 27 -130 0
-67 -5 -88 -27 -130 -35 -68 -105 -130 -186 -167 -37 -17 -70 -35 -74 -42 -4
-6 -8 -55 -8 -108 0 -91 -1 -98 -20 -98 -18 0 -20 7 -20 74 0 87 -5 106 -31
106 -17 0 -19 -8 -19 -90 0 -83 -2 -90 -20 -90 -17 0 -19 8 -22 88 -3 79 -5
87 -23 87 -18 0 -20 -8 -23 -87 -3 -80 -5 -88 -22 -88 -19 0 -20 7 -20 103 0
116 2 113 -84 157 -206 106 -251 349 -91 504 99 97 249 136 397 105z m-714
-515 c12 -8 29 -31 37 -50 20 -49 39 -52 104 -16 l57 31 27 -34 c15 -19 27
-36 27 -39 0 -2 -25 -18 -55 -35 -73 -41 -81 -59 -50 -105 53 -78 19 -161 -67
-161 -32 0 -45 6 -64 28 -35 41 -32 86 11 137 29 34 33 45 24 61 -15 28 -33
33 -73 19 -94 -31 -166 81 -97 151 34 33 83 39 119 13z m1358 -25 c12 -13 19
-36 19 -61 0 -32 -6 -45 -30 -65 -26 -23 -34 -25 -88 -19 -87 10 -115 -24 -61
-75 37 -34 47 -65 34 -105 -23 -69 -99 -86 -151 -35 -35 36 -39 86 -9 124 35
44 27 64 -46 109 l-65 41 34 34 34 34 53 -31 c67 -39 90 -36 114 15 35 75 110
91 162 34z"/>
</g>
</svg>
